<?xml version="1.0" standalone="no"?><!DOCTYPE svg PUBLIC "-//W3C//DTD SVG 1.1//EN" "http://www.w3.org/Graphics/SVG/1.1/DTD/svg11.dtd"><svg t="1719131549453" class="icon" viewBox="0 0 1024 1024" version="1.1" xmlns="http://www.w3.org/2000/svg" p-id="1399" xmlns:xlink="http://www.w3.org/1999/xlink" width="200" height="200"><path d="M921.088 485.376c-17.408 0-31.744 14.336-31.744 31.744v315.392c0 17.408-14.336 31.744-31.744 31.744H164.352c-17.408 0-31.744-14.336-31.744-31.744V295.936c0-17.408 14.336-31.744 31.744-31.744h220.672c17.408 0 31.744-14.336 31.744-31.744s-14.336-31.744-31.744-31.744c-1.024 0-2.048 0.512-3.072 0.512H164.864C112.64 202.24 70.144 244.736 70.144 296.96v536.064c0 52.224 42.496 94.72 94.72 94.72h693.76c52.224 0 94.72-42.496 94.72-94.72V517.12h-0.512c0-17.408-14.336-31.744-31.744-31.744z" fill="#47a8f2" p-id="1400"></path><path d="M403.456 624.128c-2.048 4.096-3.072 8.704-3.072 13.312 0 17.408 14.336 31.744 31.744 31.744 15.36 0 27.136-10.752 30.208-25.6h0.512c36.352-186.88 190.976-331.264 382.976-352.768l-32.768 75.264c-8.192 18.432-12.288 32.256 0 44.544 12.288 12.288 30.208 17.92 44.544 0l87.04-129.024c12.288-12.288 12.288-32.256 0-44.544l-120.832-120.832c-12.288-12.288-32.256-12.288-44.544 0-12.288 12.288-12.288 32.256 0 44.544l66.56 66.56c-220.16 21.504-397.312 184.32-442.368 396.8z" fill="#47a8f2" p-id="1401"></path></svg>