<?xml version="1.0" standalone="no"?><!DOCTYPE svg PUBLIC "-//W3C//DTD SVG 1.1//EN" "http://www.w3.org/Graphics/SVG/1.1/DTD/svg11.dtd"><svg t="1719065001686" class="icon" viewBox="0 0 1024 1024" version="1.1" xmlns="http://www.w3.org/2000/svg" p-id="3691" xmlns:xlink="http://www.w3.org/1999/xlink" width="200" height="200"><path d="M581.6 714.72V217.28a14.4 14.4 0 0 1 14.56-14.56h34.72a14.56 14.56 0 0 1 14.72 14.56v353.6a14.56 14.56 0 0 0 14.56 14.56h64A14.56 14.56 0 0 1 736 608l-128 176a14.4 14.4 0 0 1-26.24-8.48z m-84.8-405.44v497.44a14.56 14.56 0 0 1-14.56 14.56H448a14.4 14.4 0 0 1-14.56-14.56v-353.6a14.56 14.56 0 0 0-14.56-14.56h-64a14.56 14.56 0 0 1-12.64-22.56l128-176a14.56 14.56 0 0 1 26.4 8.48z" fill="#47a8f2" p-id="3692"></path></svg>