<?xml version="1.0" standalone="no"?><!DOCTYPE svg PUBLIC "-//W3C//DTD SVG 1.1//EN" "http://www.w3.org/Graphics/SVG/1.1/DTD/svg11.dtd"><svg t="1718894846617" class="icon" viewBox="0 0 1024 1024" version="1.1" xmlns="http://www.w3.org/2000/svg" p-id="4367" xmlns:xlink="http://www.w3.org/1999/xlink" width="200" height="200"><path d="M1024 938.665984C1024 985.812992 985.812992 1024 938.665984 1024H85.334016C38.187008 1024 0 985.812992 0 938.665984V85.334016C0 38.187008 38.187008 0 85.334016 0h853.331968C985.812992 0 1024 38.187008 1024 85.334016v853.331968z" fill="#19BBAD" p-id="4368"></path><path d="M261.390336 648.820736C202.104832 638.040064 153.6 584.142848 153.6 514.072576c0-70.068224 48.504832-118.5792 107.790336-134.74816 5.388288-64.677888 37.72416-102.408192 102.4-102.408192h220.966912C595.53792 239.187968 633.264128 206.848 676.378624 206.848h97.011712C827.283456 206.848 870.4 249.966592 870.4 303.865856s-43.116544 102.408192-97.009664 102.408192h-97.011712c-48.504832 0-86.23104-26.949632-97.009664-70.068224H358.4c-32.33792 0-43.116544 10.780672-48.504832 48.508928 59.283456 10.780672 107.788288 64.679936 107.788288 129.357824 0 64.679936-48.504832 118.5792-107.788288 129.357824 0 32.339968 16.16896 48.508928 48.504832 48.508928h220.96896c10.778624-43.118592 48.504832-70.068224 97.009664-70.068224h97.011712c53.89312 0 97.009664 43.118592 97.009664 97.017856s-43.116544 97.019904-97.009664 97.019904h-97.011712c-43.114496 0-80.842752-26.95168-91.621376-70.070272H358.4c-59.283456 0-97.009664-37.728256-97.009664-97.017856z m26.945536-53.899264c43.116544 0 80.842752-37.728256 80.842752-80.848896 0-43.118592-37.72416-80.848896-80.842752-80.848896-43.114496 0-80.840704 37.730304-80.840704 80.848896 0 43.12064 32.33792 80.848896 80.840704 80.848896z m388.042752-328.78592c-21.557248 0-43.114496 21.561344-43.114496 43.12064s16.166912 43.118592 43.114496 43.118592h97.011712c21.557248 0 43.114496-21.559296 43.114496-43.118592s-21.557248-43.118592-43.114496-43.118592h-97.011712z m0 409.634816c-21.557248 0-43.114496 21.559296-43.114496 43.118592 0 21.561344 21.557248 43.12064 43.114496 43.12064h97.011712c21.557248 0 43.114496-21.559296 43.114496-43.12064 0-21.559296-21.557248-43.118592-43.114496-43.118592h-97.011712z" fill="#FFFFFF" p-id="4369"></path></svg>