<?xml version="1.0" standalone="no"?><!DOCTYPE svg PUBLIC "-//W3C//DTD SVG 1.1//EN" "http://www.w3.org/Graphics/SVG/1.1/DTD/svg11.dtd"><svg t="1719065009315" class="icon" viewBox="0 0 1024 1024" version="1.1" xmlns="http://www.w3.org/2000/svg" p-id="3852" xmlns:xlink="http://www.w3.org/1999/xlink" width="200" height="200"><path d="M136.4 63H420c39.6 0 71.8 32.1 71.8 71.8v283.6c0 39.6-32.1 71.8-71.8 71.8H136.4c-39.6 0-71.8-32.1-71.8-71.8V134.7c0-39.6 32.1-71.7 71.8-71.7zM136.4 532.8H420c39.6 0 71.8 32.1 71.8 71.8v283.6c0 39.6-32.1 71.8-71.8 71.8H136.4c-39.6 0-71.8-32.1-71.8-71.8V604.6c0-39.6 32.1-71.8 71.8-71.8zM606.2 63h283.6c39.6 0 71.8 32.1 71.8 71.8v283.6c0 39.6-32.1 71.8-71.8 71.8H606.2c-39.6 0-71.8-32.1-71.8-71.8V134.7c0.1-39.6 32.2-71.7 71.8-71.7zM606.2 532.8h283.6c39.6 0 71.8 32.1 71.8 71.8v283.6c0 39.6-32.1 71.8-71.8 71.8H606.2c-39.6 0-71.8-32.1-71.8-71.8V604.6c0.1-39.6 32.2-71.8 71.8-71.8z" fill="#47a8f2" p-id="3853"></path></svg>